{"title":"Veronique.Sexy.Brunette xXx Hardcore.Scene.XViD@Mastitorrents","uid":6089427,"size":291164540,"categoryP":"porn","categoryS":"movie_clips","magnet":"?xt=urn:btih:1af6bc436ad89d2d3c62049dd32dfcf25d373561&amp;dn=Veronique.Sexy.Brunette+xXx+Hardcore.Scene.XViD%40Mastitorrents&amp;tr=udp%3A%2F%2Ftracker.openbittorrent.com%3A80&amp;tr=udp%3A%2F%2Fopen.demonii.com%3A1337&amp;tr=udp%3A%2F%2Ftracker.coppersurfer.tk%3A6969&amp;tr=udp%3A%2F%2Fexodus.desync.com%3A6969","seeders":0,"leechers":0,"uploader":"amanrulz","files":1,"time":1294482763,"description":"mastitorrents.com\n &lt;a href=&quot;\nhttp://mastitorrents.com/forums/index.php&quot; rel=&quot;nofollow&quot; target=&quot;_NEW&quot;&gt;\nhttp://mastitorrents.com/forums/index.php&lt;/a&gt;\n\nGeneral\nComplete name : Veronique.Sexy.Brunette .Hardcore.Scene.XViD-FooKaS.avi\nFormat : AVI\nFormat/Info : Audio Video Interleave\nFile size : 278 MiB\nDuration : 22mn 33s\nOverall bit rate : 1 720 Kbps\nWriting library : MPlayer\n\nVideo\nID : 0\nFormat : MPEG-4 Visual\nFormat profile : Simple@L1\nFormat settings, BVOP : No\nFormat settings, QPel : No\nFormat settings, GMC : No warppoints\nFormat settings, Matrix : Default (H.263)\nCodec ID : DX50\nCodec ID/Hint : DivX 5\nDuration : 22mn 33s\nBit rate : 1 451 Kbps\nWidth : 512 pixels\nHeight : 288 pixels\nDisplay aspect ratio : 16:9\nFrame rate : 29.970 fps\nColor space : YUV\nChroma subsampling : 4:2:0\nBit depth : 8 bits\nScan type : Interlaced\nScan order : Top Field First\nCompression mode : Lossy\nBits/(Pixel*Frame) : 0.328\nStream size : 234 MiB (84%)\nWriting library : Lavc52.0.0\n\nAudio\nID : 1\nFormat : MPEG Audio\nFormat version : Version 1\nFormat profile : Layer 3\nMode : Joint stereo\nCodec ID : 55\nCodec ID/Hint : MP3\nDuration : 22mn 33s\nBit rate mode : Constant\nBit rate : 256 Kbps\nChannel(s) : 2 channels\nSampling rate : 44.1 KHz\nCompression mode : Lossy\nStream size : 41.3 MiB (15%)\nAlignment : Aligned on interleaves\nInterleave, duration : 26 ms (0.78 video frame)\nInterleave, preload duration : 809 ms\nWriting library : LAME3.97","torrent":{"xt":"urn:btih:1af6bc436ad89d2d3c62049dd32dfcf25d373561","amp;dn":"Veronique.Sexy.Brunette+xXx+Hardcore.Scene.XViD%40Mastitorrents","amp;tr":["udp%3A%2F%2Ftracker.openbittorrent.com%3A80","udp%3A%2F%2Fopen.demonii.com%3A1337","udp%3A%2F%2Ftracker.coppersurfer.tk%3A6969","udp%3A%2F%2Fexodus.desync.com%3A6969"],"infoHash":"1af6bc436ad89d2d3c62049dd32dfcf25d373561","infoHashBuffer":{"type":"Buffer","data":[26,246,188,67,106,216,157,45,60,98,4,157,211,45,252,242,93,55,53,97]},"announce":[],"urlList":[]}}